<?xml version="1.0" encoding="UTF-8"?><svg id="Layer_1" xmlns="http://www.w3.org/2000/svg" xmlns:xlink="http://www.w3.org/1999/xlink" viewBox="0 0 125 111.3193"><defs><linearGradient id="linear-gradient" x1="20.2422" y1="41.534" x2="107.617" y2="41.534" gradientUnits="userSpaceOnUse"><stop offset=".4197" stop-color="#c29335"/><stop offset=".4341" stop-color="#c39538"/><stop offset=".4452" stop-color="#c89d41"/><stop offset=".4551" stop-color="#d0aa52"/><stop offset=".4643" stop-color="#dcbc69"/><stop offset=".4724" stop-color="#ead284"/><stop offset=".4774" stop-color="#dfc06c"/><stop offset=".4859" stop-color="#cfa74a"/><stop offset=".493" stop-color="#c69735"/><stop offset=".4976" stop-color="#c3922e"/></linearGradient></defs><path d="M99.8567,53.8738v.0048l-3.2613,4.5204c-.5399.7506-1.4795,1.2082-2.4891,1.2082l-5.4453.0097-5.4623-.0097c-1.0001,0-1.9298-.4528-2.4672-1.1961l-3.2687-4.5326v-.0048l10.3411-30.7012c0-.0024-.0025-.0048-.0025-.0048-.2348.092-.4721.1816-.7118.2663-.0751.0266-.1501.0533-.2227.0775-1.4818.5085-3.0242.8426-4.6294.7796-1.8231-.0654-3.5205-.7239-5.1789-1.2687-4.0532-1.5665-8.254-.1985-11.9245,1.8038-.1115.0605-.2107.1356-.3003.2252-.0242.0194-.0436.0436-.0654.0654-.0121.0121-.0218.0266-.0339.0387-.2082.247-.3268.5642-.3268.8983v.2106c0,.0969-.0655.1864-.1598.2131-.0508.0145-.1042.0266-.1574.0412-.1986.0509-.3342.23-.3245.4358.1332,2.8474.4043,8.6583.6877,14.7235,0,.0169.0048.0339.0096.0484.005.0121.0097.0218.017.0315.0048.0097.0121.0169.0194.0218.0241.0242.0557.0412.092.0436.0968.0072.184.0557.2252.1356.0072.0145.0121.0291.0145.0436.0047.0145.0072.0291.0072.046.058,1.2953.1162,2.5374.1694,3.6972,0,.0145.0025.0314,0,.046.0219.4842.0436.9539.0655,1.4067v.0411c.0144.3027.0266.598.0411.8861.0072.1526.0121.3027.0194.4528.0121.2712.0241.5351.0363.7893.0968,2.2663.1597,3.8159.1671,4.1815.0194,1.3389-.3172,6.2952-.5205,9.1474-.0145.2058-.0751.4842.058.4867,1.0726.0121,1.1235.3075,1.1235.3075.351.6949-.7555,1.8038-.3293,2.1428h7.6001c.0702,0,.1381.0048.2035.0121.0072,0,.0169.0024.0241.0024.0557.0073.109.0169.1623.0291l.058.0145c.0291.0073.0605.017.092.0267.0219.0072.0436.0145.0654.0218.017.0048.0339.0121.0508.0194.1598.063.3075.1501.4407.2542.0266.0218.0532.0411.0774.0654.0702.0605.1356.1283.1938.1985.0169.0194.0338.0412.0484.063.0145.0169.0291.0363.0411.0533.0921.1331.2784.2518.4456.2809.0241.0024.0484.0048.0726.0048h1.8522c.5981,0,1.1767.23,1.5957.6537h.0024c.1525.1525.2978.322.4309.4842.3996.4915.6804.9515.6804.9515h.0025v1.0145c0,.0024-.0025.0024-.0048.0024h-34.4299c-.0024,0-.0048,0-.0048-.0024v-1.0145s.0388-.063.109-.1695c.0169-.0266.0387-.0605.0629-.0944.1792-.2639.4819-.6852.8305-1.0581.0363-.0387.0726-.0775.1114-.1162h.0024c.419-.4213.9952-.6513,1.5883-.6513h1.8572c.0241,0,.0484-.0024.0726-.0048.1671-.0291.3535-.1477.4455-.2809.0122-.0169.0267-.0363.0411-.0533.0219-.0291.0436-.0581.0679-.0847.0121-.0145.0242-.0291.0388-.0436.0169-.0194.0363-.0412.0557-.0581.0266-.0266.0532-.0509.0798-.075.0242-.0242.0508-.0436.0776-.0654.1331-.1041.2809-.1913.4406-.2542.0266-.0097.0508-.0194.0751-.0291.0145-.0048.0291-.0097.046-.0145.0582-.0194.1162-.0339.1744-.0436.0508-.0121.1017-.0218.1549-.0266.0679-.0073.1356-.0121.2058-.0121h7.6003c.4261-.3389-.6804-1.4479-.3293-2.1428,0,0,.0508-.2954,1.1234-.3075.1332-.0024.0727-.2809.0582-.4867-.2033-2.8522-.5399-7.8085-.5205-9.1474.0121-.6852.2276-5.5543.4988-11.5251.0048-.1114.0968-.201.2106-.201.0945,0,.1719-.075.1767-.1695.2809-6.0506.5521-11.8422.6852-14.6896.0097-.2106-.1308-.3971-.3341-.4479-.0436-.0121-.0848-.0218-.1283-.0339-.0267-.0073-.0508-.0194-.0727-.0339-.0218-.017-.0411-.0363-.0557-.0557-.0097-.0097-.0169-.0218-.0218-.0339-.0122-.0242-.0194-.0484-.0267-.0751-.0024-.0145-.0024-.0266-.0024-.0412v-.2203c0-.4963-.2712-.954-.707-1.1937-3.673-2.0072-7.881-3.3849-11.9416-1.8135-1.6584.5448-3.3558,1.2033-5.1789,1.2687-.6053.0242-1.2034-.0097-1.7917-.0872-.1864-.0242-.3729-.0533-.5593-.0872-.0411-.0073-.0799-.0145-.1211-.0218-.1575-.0291-.3148-.0605-.4722-.0993-.4769-.1065-.9491-.2421-1.414-.3922-.4237-.138-.8402-.2905-1.2542-.4552-.0024-.0024-.0048,0-.0048.0048l10.3484,30.723-3.2614,4.5229c-.5423.7505-1.4793,1.2058-2.489,1.2082l-5.4478.0073-5.4623-.0073c-.9999-.0024-1.9298-.4528-2.4649-1.1985l-3.271-4.5325,10.5807-31.413-.0024-.0024c0-.0024,0-.0048-.0025-.0073-.0121-.0097-.0241-.0194-.0338-.0291-.0727-.063-.1356-.138-.1889-.2179-.0242-.0363-.046-.0726-.0654-.1138-.0218-.0412-.0411-.0872-.0557-.1332-.2639-.8063.368-1.615,1.2518-1.3656.2591.0702.5158.2227.4673.5399-.0266.1816-.1283.23-.2276.3704q.0024.0048.0024.0097c.9007.3148,1.799.5908,2.7021.7724,1.0484.2106,2.1017.2954,3.104.1816,1.4552-.1404,3.1549-.9201,4.5543-1.4963,2.2299-.9927,4.8038-1.3922,7.2371-1.0363,1.0436.1404,2.0749.368,3.0846.6634.3294.0968.6586.1985.983.3099.2712.092.5376.1864.8039.2857.184.0678.3655.138.5471.2106.1453.0581.2881.1162.431.1743.0145.0048.0266.0097.0411.0121.1089.0218.2155-.0363.259-.1332.0122-.0266.0194-.0581.0194-.092v-.3317c0-.2639.213-.477.477-.477h.0024c.1259,0,.2252-.109.2155-.2324-.0194-.2373-.0363-.477-.0702-.7094-.0363-.247-.2349-.3874-.4214-.5206-.1888-.1356-.3752-.2494-.4575-.4794-.063-.1792-.0727-.3705-.0921-.5569-.0823-.8038.1042-1.5932.4262-2.3268.3196-.7288.7506-1.4019,1.1573-2.0847.1405-.2373.3608-.3559.5811-.3583.2229.0024.4431.1211.5836.3583.4068.6828.8377,1.3559,1.1574,2.0847.322.7336.5084,1.523.4261,2.3268-.0194.1864-.0291.3777-.092.5569-.0823.23-.2687.3438-.4576.4794-.1864.1332-.3849.2736-.4212.5206-.0316.23-.0508.4649-.0679.6973-.0121.1307.092.2445.2227.2445h.0048c.1284,0,.2421.0508.3269.1356.0218.0218.0411.0436.0582.0702.0169.0242.0314.0509.0435.0775.0242.0557.0364.1162.0364.1816v.385c0,.0291.0047.0557.0169.0799.0387.0896.138.1429.2396.1235.0122,0,.0219-.0048.0339-.0097.1211-.0509.2398-.0993.3608-.1477.351-.1404.7093-.276,1.0677-.4043h.0025c.1211-.0436.2421-.0847.3632-.1259,1.3292-.4528,2.6973-.7966,4.087-.9806,2.4333-.3559,5.0071.0436,7.2371,1.0363,1.3994.5763,3.0991,1.3583,4.5543,1.4987,1.0023.1114,2.0556.0266,3.104-.184.9031-.1816,1.8014-.4576,2.7021-.7724q0-.0048.0024-.0097c-.0993-.1404-.201-.1889-.2276-.368-.0485-.3196.2082-.4697.4673-.5424.8812-.247,1.5156.5593,1.2518,1.3656-.0145.046-.0339.092-.0557.1332-.0145.0315-.0316.063-.0508.092-.0073.0145-.017.0266-.0242.0387-.0218.0315-.046.063-.0702.0896-.0339.0412-.0702.0775-.109.1114q-.0024.0024-.0048.0024c-.0193.0169-.0387.0339-.0605.0508-.0024.0048-.0024.0073-.0024.0121-.0025.0024-.0025.0048-.0025.0073l10.5663,31.3767Z" fill="url(#linear-gradient)"/><path d="M91.828,48.9445c-.1886-.3363-.4293-.6119-.7227-.8266-.2935-.2147-.6001-.3887-.9196-.5224-.3802-.1587-.7302-.2915-1.059-.4064v-3.7127c.0092.0019.0193.0025.0285.0045.1956.0428.3733.0989.5332.1682.1598.0692.2945.1443.4042.2254.0573.0382.1216.0895.1933.1537.0715.0644.1144.1302.1287.197l.2864,1.4025h.8372v-2.6263c-.291-.0714-.5977-.143-.9196-.2147-.322-.0714-.6608-.131-1.0161-.1788-.1547-.0207-.3143-.035-.4758-.0467v-.5745c0-.1455.025-.2602.0752-.3441.0501-.0833.1101-.1436.18-.1799l1.0534-.5569v-.7968h-3.9912v.7968l1.0599.5569c.0697.0363.1287.0947.1766.1747s.072.1965.072.3494v.6129c-.3655.0597-.7109.16-1.0304.3125-.5249.2505-.9411.5916-1.2487,1.0231-.3077.432-.4617.9244-.4617,1.4778,0,.6154.1645,1.1402.4938,1.5743.329.4341.7824.7705,1.3597,1.0089.2903.1198.5871.2259.8872.325v4.034c-.0801-.0142-.1607-.0263-.2396-.0474-.2411-.0644-.4689-.1489-.6835-.254-.2147-.1048-.4128-.2147-.594-.3293-.0525-.038-.1156-.0904-.1896-.1572s-.1181-.1337-.1325-.2005l-.3004-1.4813h-.8444l.0429,2.7407c.3722.1002.749.2005,1.1306.3005.3817.1003.7562.1837,1.1237.2505.2379.0433.4649.0673.6868.0826v.6042c0,.1602-.0219.2805-.0654.3604-.0437.08-.1048.1418-.1832.1854l-1.0599.5351v.8186h3.9912v-.8186l-1.0534-.5351c-.0698-.0363-.1299-.0962-.18-.1802-.0502-.0833-.0752-.2054-.0752-.3657v-.6604c.4943-.0703.9291-.189,1.2879-.3699.587-.2957,1.0163-.6785,1.2882-1.1485.2719-.4697.4079-.9648.4079-1.4848,0-.501-.0942-.9196-.2826-1.2559ZM86.69,45.9391c-.203-.3221-.3042-.6691-.3042-1.0413,0-.4152.1872-.7656.5617-1.052.216-.1651.4885-.2768.8051-.3467v3.1987c-.5148-.207-.8735-.4586-1.0626-.7588ZM90.0068,51.9178c-.2403.1836-.5375.3093-.8801.389v-3.4994c.0407.0166.0807.0304.1216.0475.4244.1767.7633.4033,1.0161.6798.2527.2769.3793.6274.3793,1.052,0,.563-.2123,1.0068-.6369,1.3311Z" fill="#fff"/><path d="M39.6848,46.7659c-.0586-.022-.1108-.0633-.1566-.1237-.0458-.0605-.0816-.12-.1071-.1786l-2.7749-7.0552h-.6209l-.6483,1.3132-2.2363,5.7255c-.0514.1392-.1448.2399-.2802.3021l-.5605.2473v.412h2.4671v-.412l-.9341-.3463.7566-2.0056h2.8949l.7937,2.0331-.9231.3187v.412h2.9121v-.412l-.5825-.2308ZM34.8778,43.8812l1.1256-2.9837h.0934l.2143.7417.8752,2.2419h-2.3086Z" fill="#fff"/><path d="M36.1288,48.9942c-.7902,1.0102-3.4958,2.6432-3.3948,3.9718.0983,1.2964,1.6112,1.9203,2.751,1.3883l-.3547.6642-.3594.1586v.4121h2.4671v-.4121l-.5015-.2556-.2523-.5412c1.1782.7087,2.8886-.1658,2.7891-1.5717-.0949-1.3419-2.567-2.5532-3.1445-3.8145Z" fill="#fff"/><path d="M42.5887,2.4681c-.0193.0051-.0386.0103-.0579.0157-.171.0477-.334.1133-.4987.1789-.1465.0583-.2928.1172-.4388.1768-.2521.1028-.5035.2073-.7541.3137-.2503.1062-.4998.2142-.7485.324-.2484.1097-.496.2211-.7429.3343-.2466.1131-.4923.2279-.7372.3445-.2446.1164-.4885.2346-.7314.3546-.2428.1198-.4846.2413-.7256.3646-.2406.1231-.4805.2479-.7194.3745-.2388.1264-.4765.2545-.7135.3843-.2366.1297-.4724.261-.7072.3941-.2347.1329-.4682.2675-.7009.4038-.2325.1362-.464.2739-.6946.4134-.2302.1393-.4597.2803-.6879.4229-.2282.1425-.4554.2866-.6815.4323-.2261.1456-.4509.2928-.6749.4416-.2236.1487-.4463.299-.6678.4509-.2215.1518-.4419.3052-.6611.4601-.2192.1548-.4372.3112-.654.4692-.2169.1578-.4326.3172-.647.4782-.2144.1608-.4278.3232-.6398.4871-.2121.1638-.4229.3291-.6326.496-.2095.1667-.418.335-.6251.5047-.2071.1697-.413.3408-.6177.5134-.2045.1725-.4079.3466-.6101.522-.202.1754-.4028.3522-.6023.5305-.1996.1782-.3978.3578-.5946.5389-.197.181-.3926.3635-.5868.5473-.1942.1838-.3872.369-.5788.5555-.1915.1865-.3817.3744-.5707.5637-.1889.1892-.3763.3798-.5624.5718-.1861.1919-.371.3852-.5542.5798-.1835.1946-.3655.3905-.5459.5877-.1806.1972-.3598.3958-.5375.5956-.1777.1998-.354.401-.5289.6033-.1748.2024-.3482.4061-.5202.611-.1719.205-.3423.4112-.5113.6186-.1691.2075-.3367.4162-.5026.6261-.1662.21-.3307.4212-.4937.6336-.163.2125-.3246.4261-.4845.6409-.1601.2149-.3184.4309-.4753.6481-.157.2173-.3125.4358-.4663.6553-.1538.2197-.306.4405-.4568.6624-.1507.2221-.2998.4452-.4473.6695-.1475.2244-.2935.4498-.4378.6764-.1443.2267-.287.4544-.428.6832-.1412.229-.2806.459-.4183.69-.138.2312-.274.4634-.4085.6967-.1346.2334-.2674.4679-.3986.7033-.1313.2356-.2607.4722-.3884.7098-.1279.2378-.254.4765-.3783.7162-.1245.2399-.2472.4808-.3681.7226-.1212.242-.2403.485-.3578.7288-.1176.2441-.2333.4892-.3472.735-.1141.2462-.2264.4932-.3368.7411-.1106.2482-.2192.4973-.3261.7471-.1069.2502-.2121.5013-.3154.753-.1034.2522-.2049.5052-.3045.7589-.0999.2541-.1977.509-.2936.7647-.0962.2561-.1902.5129-.2826.7703-.0924.258-.1829.5166-.2714.7759-.0887.2598-.1754.5203-.2602.7814-.0849.2617-.1679.524-.2488.7869-.0812.2635-.1604.5276-.2374.7922-.0774.2653-.1527.5311-.2259.7975-.0735.267-.1449.5346-.2143.8027-.0695.2687-.1371.538-.2025.8078-.0657.2704-.1293.5414-.1909.8128-.0616.2721-.1212.5447-.1788.8177-.0202.0957-.0401.1915-.0597.2874-3.286,15.274.4272,30.9927,9.0924,43.3223.0967-.8461.3214-1.6745.4417-2.5188-7.907-11.6403-11.3318-26.284-8.5004-40.5989.0533-.2694.1-.54.1535-.8094.0536-.2706.1095-.5407.1676-.8103.0582-.2695.1186-.5385.181-.807.0626-.2684.1274-.5363.1944-.8036.0669-.2672.136-.5339.2072-.8.0714-.266.1449-.5314.2204-.7962.0757-.2648.1533-.5289.2333-.7924.0798-.2634.1617-.5262.2458-.7883.0841-.2621.1703-.5235.2586-.7842.0884-.2607.1786-.5206.271-.7799.0925-.2592.1869-.5177.2834-.7754s.1951-.5147.2956-.7708c.1005-.2561.2031-.5115.3077-.766.1045-.2546.2111-.5083.3195-.7612.1086-.2529.219-.5049.3315-.7561.1124-.2512.2268-.5015.3431-.751.1164-.2494.2347-.498.3547-.7456.1202-.2476.2423-.4944.3662-.7401.1239-.2458.2498-.4907.3774-.7345.1277-.2439.2573-.4869.3887-.7288.1314-.242.2647-.4829.3998-.7229.1351-.24.272-.4789.4107-.7168.1388-.2379.2792-.4748.4215-.7106.1423-.2358.2863-.4706.4321-.7043.1458-.2337.2935-.4663.4428-.6978.1493-.2315.3004-.4619.4531-.6912.1529-.2293.3074-.4574.4635-.6844.1562-.227.3142-.4528.4736-.6775.1596-.2247.3209-.4481.4837-.6704s.3275-.4434.4937-.6632c.166-.2198.3339-.4385.5033-.6558s.3403-.4335.5131-.6483c.1725-.2148.3468-.4284.5225-.6407.1758-.2123.3531-.4233.532-.6329s.3593-.418.5413-.625c.182-.207.3655-.4126.5503-.6169.185-.2043.3714-.4072.5595-.6087.1879-.2015.3774-.4016.5683-.6003.1909-.1987.3832-.3959.5772-.5918.1938-.1958.3891-.3902.5857-.5831.1967-.1929.3947-.3843.5942-.5743.1996-.19.4004-.3784.6027-.5654.2022-.1869.4058-.3724.6108-.5563.2049-.1839.4113-.3662.619-.547.2077-.1808.4166-.36.6271-.5377.2103-.1776.4218-.3537.6349-.5281.2129-.1744.427-.3472.6426-.5184.2155-.1712.4322-.3407.6502-.5086.218-.1679.4373-.3341.6577-.4987.2206-.1645.4422-.3274.6651-.4886.223-.1611.4471-.3206.6724-.4783.2253-.1577.4517-.3137.6795-.4679.2276-.1542.4565-.3067.6864-.4574.2299-.1507.461-.2996.6933-.4467.2322-.1471.4655-.2924.7-.4358.2345-.1434.4699-.2851.7066-.4249s.4742-.2777.713-.4138c.2388-.136.4787-.2702.7194-.4025s.4826-.2626.7256-.3911.4868-.255.7317-.3795c.2449-.1246.4908-.2472.7377-.3678.2469-.1206.4947-.2393.7435-.356.2488-.1167.4984-.2313.7492-.344.2507-.1127.5022-.2233.7547-.3318.2526-.1086.5059-.2151.7602-.3195.3352-.1377.6805-.2578,1.0057-.4182.0722-.0356.1437-.0725.2151-.1097.2787-.145.5555-.2935.8305-.4453-.0513.0065-.1007.02-.1513.0304-.1078.0221-.2155.0443-.3233.0665-.1479.0305-.2986.0618-.4462.1006Z" fill="#c89c3e"/><path d="M21.0339,101.7776c.2007.1575.3958.2967.5715.4109.2729.1775.5752.3446.8959.5v-.9684c-.4884.0273-.9777.0442-1.4674.0576Z" fill="#c89c3e"/><path d="M16.7439,88.2967c-.0893-.3666-.1241-.7409-.131-1.1187-1.7517-2.3411-6.0652-2.3445-8.6177-2.4054.5181,3.8112,5.7367,7.4878,9.247,5.3594.0681-.1777.1058-.3603.1228-.5445-.2834-.3679-.5-.7929-.6211-1.2908Z" fill="#c89c3e"/><path d="M17.9047,83.1488c.4485-2.0613,2.5815-3.4667,4.8899-4.0399-.0355-.7823-.178-1.5665-.4158-2.375-.2303-.7832-.6947-2.1407-1.6041-2.2002-1.2635,2.6491-3.9081,5.53-2.9219,8.6178.0171-.0017.0346-.0015.0519-.0026Z" fill="#c89c3e"/><path d="M18.4621,68.9797c1.2561,2.6018,1.0037,6.457-.8875,8.6919-1.1982,1.416-2.4297,1.8438-3.3071-.1116-1.4377-3.2044,2.3286-6.8758,3.9222-9.2819l.2723.7016Z" fill="#c89c3e"/><path d="M12.6788,83.1498c-1.7076,1.1989-4.3856-.0951-5.8073-1.3046-1.2739-1.0837-2.6614-3.2646-2.5267-4.9842,3.4229.6165,9.2524,1.4557,8.334,6.2888Z" fill="#c89c3e"/><path d="M16.0729,62.9103c.2161.0496.4073.4597.4846.6797.862,2.4516-.2376,6.3435-2.2868,7.9197-.6887.5296-1.913,1.1849-2.5019.2217-.7205-1.1786-.6641-2.6316-.1707-3.878.3794-.9585,3.5899-5.1463,4.4747-4.9431Z" fill="#c89c3e"/><path d="M2.3609,68.9805c.5354.0754,2.2973.764,2.894,1.0171,1.5149.6426,3.2645,1.589,3.927,3.2087.3673.898.6852,2.0731-.0397,2.8464-3.1389.9545-6.7764-2.7162-7.2568-5.6431-.0702-.4277-.2126-1.526.4755-1.4291Z" fill="#c89c3e"/><path d="M1.0019,61.0647c.335.0546,3.1634,1.5769,3.6416,1.8775,1.6313,1.0256,2.9576,2.5718,2.6126,4.6719-.1695,1.0317-.4236,1.1843-1.4302,1.1089-2.3793-.1782-4.9199-3.2338-5.3088-5.5279-.0814-.4802-.2844-2.2557.4848-2.1304Z" fill="#c89c3e"/><path d="M12.4459,58.4794c.7074-.6233,2.7181-2.6136,2.861-.8275.2678,3.3498-1.3986,7.8835-5.2293,7.7743-1.4633-3.1109.1625-5.0031,2.3684-6.9468Z" fill="#c89c3e"/><path d="M10.7496,53.0262c.4443-.3663,3.4285-2.2923,3.7426-2.2284.7356.1497.2202,2.8518.0035,3.4893-.741,2.1802-2.9037,4.7613-5.3738,4.319-1.1517-2.2379-.1217-4.1375,1.6276-5.5799Z" fill="#c89c3e"/><path d="M5.8859,60.6313c-.2368.5817-.5493.6953-1.1439.5977-2.9969-.4922-5.549-5.1963-4.5032-8.1036.1753-.1983,3.2775,1.9372,3.632,2.2279,1.573,1.2899,2.8831,3.1457,2.0151,5.2781Z" fill="#c89c3e"/><path d="M12.9317,45.7111c2.1569-.9914,2.8435-1.1975,2.0235,1.5982-.752,2.5635-3.2143,5.0863-6.0216,4.6264-1.161-3.3381,1.3974-5.0291,3.9981-6.2245Z" fill="#c89c3e"/><path d="M5.9239,52.295c-.3522,2.7507-2.7713,1.173-3.8591-.2193-1.0394-1.3304-2.1456-4.6195-1.2582-6.1647.1561-.2716.3775-.2904.6544-.2031,2.0676,1.8133,4.8757,3.3631,4.4628,6.587Z" fill="#c89c3e"/><path d="M4.111,46.0332c-1.8423-1.4785-2.8298-5.0755-1.8753-7.2747.1055-.2431.3041-.5905.6148-.5192.6012.138,3.4478,3.8451,3.6704,4.6382.5289,1.8854-.0597,5.0419-2.4099,3.1557Z" fill="#c89c3e"/><path d="M11.7076,45.3936c-1.3611.2374-2.4698.4108-2.3511-1.2285.2191-3.0259,4.3263-4.5517,6.852-4.7696.3553,2.3256-2.3228,5.6182-4.501,5.9981Z" fill="#c89c3e"/><path d="M11.8065,39.3476c-.7502-.167-.863-.5082-.864-1.2326-.0045-3.0913,4.7168-4.0883,7.0922-4.0708.1117,2.7168-3.6629,5.8744-6.2282,5.3034Z" fill="#c89c3e"/><path d="M7.891,38.9413c-.4605.9177-.7826,1.1246-1.7073.5552-1.9404-1.1947-2.3599-4.3494-2.0163-6.447.0894-.5457.4733-1.7746,1.1871-1.5521,1.6109,2.1905,3.9963,4.5349,2.5366,7.4438Z" fill="#c89c3e"/><path d="M20.1761,28.9513c.5827.1622.0702,1.0721-.1256,1.4487-.9763,1.8774-3.8748,3.6083-5.9649,3.1322-2.156-.4912-.4033-3.009.8216-3.7238.9655-.5635,2.7918-.7927,3.9208-.8862.3774-.0312,1.0088-.0653,1.348.0291Z" fill="#c89c3e"/><path d="M9.9209,32.866c-1.4143,1.4746-2.8914-1.6458-3.0526-2.9086-.1993-1.5615-.0914-4.2012,1.4655-4.9876,1.3718,1.9723,3.6632,5.7316,1.5871,7.8963Z" fill="#c89c3e"/><path d="M10.9901,26.452c-1.2139-1.6487-1.088-5.132.1984-6.7187.1655-.2042.5014-.6326.7768-.5725.7047.1539,1.968,4.1693,1.9694,4.9939.0026,1.553-1.6036,4.1186-2.9447,2.2973Z" fill="#c89c3e"/><path d="M18.1478,28.2467c-2.1667.0002-3.0501-1.5266-1.3751-3.0512.2082-.1895,1.67-.9244,1.8315-.9244h4.6774c.0353,2.126-3.3131,3.9754-5.1339,3.9756Z" fill="#c89c3e"/><path d="M25.2221,22.178c-1.5337,1.178-4.6915,1.7919-6.0241.0739.6148-3.6916,4.8776-2.6372,7.5069-2.168.4238.3045-1.1918,1.8706-1.4828,2.0941Z" fill="#c89c3e"/><path d="M14.333,20.2502c-.4879-1.3328-.4335-2.5055-.0184-3.8444.2106-.679,1.174-2.8404,1.9971-2.6003.6793.1982,1.3625,4.3564,1.2492,5.2143-.2419,1.8311-2.2989,3.7682-3.2279,1.2304Z" fill="#c89c3e"/><path d="M18.273,14.4114c-.1091-1.4071,1.009-4.2689,2.5687-4.532.3021,1.5986.8648,3.0914.3452,4.703-.7202,2.2338-2.7051,2.5211-2.9138-.171Z" fill="#c89c3e"/><path d="M29.7882,16.496c.2634.9421-2.2663,1.8706-2.9824,1.9727-1.0685.1524-2.4471-.0474-3.0625-1.0512.2596-1.8191,2.1374-1.9624,3.6312-1.7545.383.0533,2.3309.5373,2.4137.833Z" fill="#c89c3e"/><path d="M24.2016,11.6722c-.1927.0472-.6306.1125-.7643.0156-.0371-.0269-.3314-.7547-.3508-.8554-.2569-1.3288.3975-3.0558,1.3308-3.9891.6067-.6067,1.1607-1.1584,1.3827-.0874.3222,1.5545.3097,4.4489-1.5983,4.9163Z" fill="#c89c3e"/><path d="M33.0219,13.6175c-.8525,1.1529-3.053,1.4005-4.2333.7693-1.7175-.9185.0318-2.262,1.4181-2.1032.5524.0633,2.1142.6267,2.5599.959.1362.1016.3093.1601.2553.3749Z" fill="#c89c3e"/><path d="M35.3785,10.9597c.4983.7561-1.8355.9609-2.262.9169-.6895-.0712-2.2076-.8317-1.4301-1.5964.7238-.7117,1.7867-.3323,2.5662.0409.1526.0731,1.09.5841,1.1259.6386Z" fill="#c89c3e"/><path d="M27.6362,8.4434c-.5203-.8289-.3241-2.007.1377-2.8295.2263-.4029,1.8456-2.1661,2.2809-1.6871.0998,1.7567-.1129,4.7137-2.4187,4.5166Z" fill="#c89c3e"/><path d="M31.2865,6.5317c-.4636-.7386-.2888-1.7885.1227-2.5215.2017-.359,1.6446-1.9303,2.0326-1.5034.0889,1.5654-.1006,4.2005-2.1553,4.0248Z" fill="#c89c3e"/><path d="M38.0139,2.8621c.15-.1017.3229-.1029.4913-.1115.0991-.0051.1967-.0128.2871-.0453.9368-.3368,1.3356-1.4513,1.608-2.3675.025-.0839.0493-.1667.0724-.2465-1.3189-.3498-3.2478,1.4167-2.4588,2.7708Z" fill="#c89c3e"/><path d="M41.1158,2.2068c.1175-.0797.2531-.0806.385-.0874.0777-.004.1542-.01.225-.0355.7342-.264,1.0467-1.1375,1.2603-1.8555.0196-.0658.0386-.1307.0567-.1932-1.0337-.2741-2.5455,1.1104-1.9271,2.1716Z" fill="#c89c3e"/><path d="M42.0716,4.3122c.1326-.0509.2107-.1617.2916-.2662.0477-.0615.0963-.1209.1576-.1644.636-.4519,1.5315-.2097,2.2429.0251.0651.0215.1293.0429.191.0638-.3653,1.0051-2.3652,1.4554-2.8832.3417Z" fill="#c89c3e"/><path d="M35.5276,4.1168c-1.1954.6114-1.3094-.4717-.9909-1.3996.2476-.7215,1.4082-1.8915,2.2264-1.8134.0073,1.0024-.2628,2.7155-1.2355,3.2131Z" fill="#c89c3e"/><path d="M36.993,9.7861c-.9655.1484-2.5317-.0827-2.6087-1.2904.6656-.6631,1.4217-.4753,2.1455-.0501.2107.1238,1.343.8655,1.0775,1.1121-.0242.0224-.5377.2167-.6143.2285Z" fill="#c89c3e"/><path d="M39.397,7.9969c-.9748.1499-2.556-.0835-2.6337-1.3028.6719-.6695,1.4354-.4799,2.1661-.0506.2128.125,1.3559.8738,1.0878,1.1227-.0244.0227-.5429.2188-.6202.2307Z" fill="#c89c3e"/><path d="M41.9584,6.6306c-.9748.1499-2.556-.0835-2.6337-1.3028.6719-.6695,1.4354-.4799,2.1661-.0506.2128.125,1.3559.8738,1.0878,1.1227-.0244.0227-.5429.2188-.6202.2307Z" fill="#c89c3e"/><path d="M46.1048,1.4742c-.5462.6115-1.6841,1.2978-2.3787.5566.0772-.7848.6672-1.0669,1.3631-1.1777.2026-.0323,1.332-.1562,1.2916.1452-.0037.0274-.2327.4274-.276.4759Z" fill="#c89c3e"/><path d="M82.4113,2.5082c.0193.0051.0386.0103.0579.0157.171.0477.334.1133.4987.1789.1465.0583.2928.1172.4388.1768.2521.1028.5035.2073.7541.3137.2503.1062.4998.2142.7485.324.2484.1097.496.2211.7429.3343.2466.1131.4923.2279.7372.3445.2446.1164.4885.2346.7314.3546.2428.1198.4846.2413.7256.3646.2406.1231.4805.2479.7194.3745.2388.1264.4765.2545.7135.3843.2366.1297.4724.261.7072.3941.2347.1329.4682.2675.7009.4038.2325.1362.464.2739.6946.4134.2302.1393.4597.2803.6879.4229.2282.1425.4554.2866.6815.4323.2261.1456.4509.2928.6749.4416.2236.1487.4463.299.6678.4509.2215.1518.4419.3052.6611.4601.2192.1548.4372.3112.654.4692.2169.1578.4326.3172.647.4782.2144.1608.4278.3232.6398.4871.2121.1638.4229.3291.6326.496.2095.1667.418.335.6251.5047.2071.1697.413.3408.6177.5134.2045.1725.4079.3466.6101.522.202.1754.4028.3522.6023.5305.1996.1782.3978.3578.5946.5389.197.181.3926.3635.5868.5473.1942.1838.3872.369.5788.5555.1915.1865.3817.3744.5707.5637.1889.1892.3763.3798.5624.5718.1861.1919.371.3852.5542.5798.1835.1946.3655.3905.5459.5877.1806.1972.3598.3958.5375.5956.1777.1998.354.401.5289.6033.1748.2024.3482.4061.5202.611.1719.205.3423.4112.5113.6186.1691.2075.3367.4162.5026.6261.1662.21.3307.4212.4937.6336.163.2125.3246.4261.4845.6409.1601.2149.3184.4309.4753.6481.157.2173.3125.4358.4663.6553.1538.2197.306.4405.4568.6624.1507.2221.2998.4452.4473.6695.1475.2244.2935.4498.4378.6764.1443.2267.287.4544.428.6832.1412.229.2806.459.4183.69.138.2312.274.4634.4085.6967.1346.2334.2674.4679.3986.7033.1313.2356.2607.4722.3884.7098.1279.2378.254.4765.3783.7162.1245.2399.2472.4808.3681.7226.1212.242.2403.485.3578.7288.1176.2441.2333.4892.3472.735.1141.2462.2264.4932.3368.7411.1106.2482.2192.4973.3261.7471.1069.2502.2121.5013.3154.753.1034.2522.2049.5052.3045.7589.0999.2541.1977.509.2936.7647.0962.2561.1902.5129.2826.7703.0924.258.1829.5166.2714.7759.0887.2598.1754.5203.2602.7814.0849.2617.1679.524.2488.7869.0812.2635.1604.5276.2374.7922.0774.2653.1527.5311.2259.7975.0735.267.1449.5346.2143.8027.0695.2687.1371.538.2025.8078.0657.2704.1293.5414.1909.8128.0616.2721.1212.5447.1788.8177.0202.0957.0401.1915.0597.2874,3.286,15.274-.4272,30.9927-9.0924,43.3223-.0967-.8461-.3214-1.6745-.4417-2.5188,7.907-11.6403,11.3318-26.284,8.5004-40.5989-.0533-.2694-.1-.54-.1535-.8094-.0536-.2706-.1095-.5407-.1676-.8103-.0582-.2695-.1186-.5385-.181-.807-.0626-.2684-.1274-.5363-.1944-.8036-.0669-.2672-.136-.5339-.2072-.8-.0714-.266-.1449-.5314-.2204-.7962-.0757-.2648-.1533-.5289-.2333-.7924-.0798-.2634-.1617-.5262-.2458-.7883-.0841-.2621-.1703-.5235-.2586-.7842-.0884-.2607-.1786-.5206-.271-.7799-.0925-.2592-.1869-.5177-.2834-.7754s-.1951-.5147-.2956-.7708c-.1005-.2561-.2031-.5115-.3077-.766-.1045-.2546-.2111-.5083-.3195-.7612-.1086-.2529-.219-.5049-.3315-.7561-.1124-.2512-.2268-.5015-.3431-.751-.1164-.2494-.2347-.498-.3547-.7456-.1202-.2476-.2423-.4944-.3662-.7401-.1239-.2458-.2498-.4907-.3774-.7345-.1277-.2439-.2573-.4869-.3887-.7288-.1314-.242-.2647-.4829-.3998-.7229-.1351-.24-.272-.4789-.4107-.7168-.1388-.2379-.2792-.4748-.4215-.7106-.1423-.2358-.2863-.4706-.4321-.7043-.1458-.2337-.2935-.4663-.4428-.6978-.1493-.2315-.3004-.4619-.4531-.6912-.1529-.2293-.3074-.4574-.4635-.6844-.1562-.227-.3142-.4528-.4736-.6775-.1596-.2247-.3209-.4481-.4837-.6704s-.3275-.4434-.4937-.6632c-.166-.2198-.3339-.4385-.5033-.6558s-.3403-.4335-.5131-.6483c-.1725-.2148-.3468-.4284-.5225-.6407-.1758-.2123-.3531-.4233-.532-.6329s-.3593-.418-.5413-.625c-.182-.207-.3655-.4126-.5503-.6169-.185-.2043-.3714-.4072-.5595-.6087-.1879-.2015-.3774-.4016-.5683-.6003-.1909-.1987-.3832-.3959-.5772-.5918-.1938-.1958-.3891-.3902-.5857-.5831-.1967-.1929-.3947-.3843-.5942-.5743-.1996-.19-.4004-.3784-.6027-.5654-.2022-.1869-.4058-.3724-.6108-.5563-.2049-.1839-.4113-.3662-.619-.547-.2077-.1808-.4166-.36-.6271-.5377-.2103-.1776-.4218-.3537-.6349-.5281-.2129-.1744-.427-.3472-.6426-.5184-.2155-.1712-.4322-.3407-.6502-.5086-.218-.1679-.4373-.3341-.6577-.4987-.2206-.1645-.4422-.3274-.6651-.4886-.223-.1611-.4471-.3206-.6724-.4783-.2253-.1577-.4517-.3137-.6795-.4679-.2276-.1542-.4565-.3067-.6864-.4574-.2299-.1507-.461-.2996-.6933-.4467-.2322-.1471-.4655-.2924-.7-.4358-.2345-.1434-.4699-.2851-.7066-.4249s-.4742-.2777-.713-.4138c-.2388-.136-.4787-.2702-.7194-.4025s-.4826-.2626-.7256-.3911-.4868-.255-.7317-.3795c-.2449-.1246-.4908-.2472-.7377-.3678-.2469-.1206-.4947-.2393-.7435-.356-.2488-.1167-.4984-.2313-.7492-.344-.2507-.1127-.5022-.2233-.7547-.3318-.2526-.1086-.5059-.2151-.7602-.3195-.3352-.1377-.6805-.2578-1.0057-.4182-.0722-.0356-.1437-.0725-.2151-.1097-.2787-.145-.5555-.2935-.8305-.4453.0513.0065.1007.02.1513.0304.1078.0221.2155.0443.3233.0665.1479.0305.2986.0618.4462.1006Z" fill="#c89c3e"/><path d="M108.2561,88.3368c.0893-.3666.1241-.7409.131-1.1187,1.7517-2.3411,6.0652-2.3445,8.6177-2.4054-.5181,3.8112-5.7367,7.4878-9.247,5.3594-.0681-.1777-.1058-.3603-.1228-.5445.2834-.3679.5-.7929.6211-1.2908Z" fill="#c89c3e"/><path d="M107.0953,83.1889c-.4485-2.0613-2.5815-3.4667-4.8899-4.0399.0355-.7823.178-1.5665.4158-2.375.2303-.7832.6947-2.1407,1.6041-2.2002,1.2635,2.6491,3.9081,5.53,2.9219,8.6178-.0171-.0017-.0346-.0015-.0519-.0026Z" fill="#c89c3e"/><path d="M106.5379,69.0199c-1.2561,2.6018-1.0037,6.457.8875,8.6919,1.1982,1.416,2.4297,1.8438,3.3071-.1116,1.4377-3.2044-2.3106-6.7386-3.9042-9.1446l-.2903.5643Z" fill="#c89c3e"/><path d="M112.3212,83.1899c1.7076,1.1989,4.3856-.0951,5.8073-1.3046,1.2739-1.0837,2.6614-3.2646,2.5267-4.9842-3.4229.6165-9.2524,1.4557-8.334,6.2888Z" fill="#c89c3e"/><path d="M108.9271,62.9504c-.2161.0496-.4073.4597-.4846.6797-.862,2.4516.2376,6.3435,2.2868,7.9197.6887.5296,1.913,1.1849,2.5019.2217.7205-1.1786.6641-2.6316.1707-3.878-.3794-.9585-3.5899-5.1463-4.4747-4.9431Z" fill="#c89c3e"/><path d="M122.6391,69.0206c-.5354.0754-2.2973.764-2.894,1.0171-1.5149.6426-3.2645,1.589-3.927,3.2087-.3673.898-.6852,2.0731.0397,2.8464,3.1389.9545,6.7764-2.7162,7.2568-5.6431.0702-.4277.2126-1.526-.4755-1.4291Z" fill="#c89c3e"/><path d="M123.9981,61.1048c-.335.0546-3.1634,1.5769-3.6416,1.8775-1.6313,1.0256-2.9576,2.5718-2.6126,4.6719.1695,1.0317.4236,1.1843,1.4302,1.1089,2.3793-.1782,4.9199-3.2338,5.3088-5.5279.0814-.4802.2844-2.2557-.4848-2.1304Z" fill="#c89c3e"/><path d="M112.5541,58.5195c-.7074-.6233-2.7181-2.6136-2.861-.8275-.2678,3.3498,1.3986,7.8835,5.2293,7.7743,1.4633-3.1109-.1625-5.0031-2.3684-6.9468Z" fill="#c89c3e"/><path d="M114.2504,53.0664c-.4443-.3663-3.4285-2.2923-3.7426-2.2284-.7356.1497-.2202,2.8518-.0035,3.4893.741,2.1802,2.9037,4.7613,5.3738,4.319,1.1517-2.2379.1217-4.1375-1.6276-5.5799Z" fill="#c89c3e"/><path d="M119.1141,60.6714c.2368.5817.5493.6953,1.1439.5977,2.9969-.4922,5.549-5.1963,4.5032-8.1036-.1753-.1983-3.2775,1.9372-3.632,2.2279-1.573,1.2899-2.8831,3.1457-2.0151,5.2781Z" fill="#c89c3e"/><path d="M112.0683,45.7512c-2.1569-.9914-2.8435-1.1975-2.0235,1.5982.752,2.5635,3.2143,5.0863,6.0216,4.6264,1.161-3.3381-1.3974-5.0291-3.9981-6.2245Z" fill="#c89c3e"/><path d="M119.0761,52.3351c.3522,2.7507,2.7713,1.173,3.8591-.2193,1.0394-1.3304,2.1456-4.6195,1.2582-6.1647-.1561-.2716-.3775-.2904-.6544-.2031-2.0676,1.8133-4.8757,3.3631-4.4628,6.587Z" fill="#c89c3e"/><path d="M120.889,46.0733c1.8423-1.4785,2.8298-5.0755,1.8753-7.2747-.1055-.2431-.3041-.5905-.6148-.5192-.6012.138-3.4478,3.8451-3.6704,4.6382-.5289,1.8854.0597,5.0419,2.4099,3.1557Z" fill="#c89c3e"/><path d="M113.2924,45.4338c1.3611.2374,2.4698.4108,2.3511-1.2285-.2191-3.0259-4.3263-4.5517-6.852-4.7696-.3553,2.3256,2.3228,5.6182,4.501,5.9981Z" fill="#c89c3e"/><path d="M113.1935,39.3877c.7502-.167.863-.5082.864-1.2326.0045-3.0913-4.7168-4.0883-7.0922-4.0708-.1117,2.7168,3.6629,5.8744,6.2282,5.3034Z" fill="#c89c3e"/><path d="M117.109,38.9814c.4605.9177.7826,1.1246,1.7073.5552,1.9404-1.1947,2.3599-4.3494,2.0163-6.447-.0894-.5457-.4733-1.7746-1.1871-1.5521-1.6109,2.1905-3.9963,4.5349-2.5366,7.4438Z" fill="#c89c3e"/><path d="M104.8239,28.9915c-.5827.1622-.0702,1.0721.1256,1.4487.9763,1.8774,3.8748,3.6083,5.9649,3.1322,2.156-.4912.4033-3.009-.8216-3.7238-.9655-.5635-2.7918-.7927-3.9208-.8862-.3774-.0312-1.0088-.0653-1.348.0291Z" fill="#c89c3e"/><path d="M115.0791,32.9061c1.4143,1.4746,2.8914-1.6458,3.0526-2.9086.1993-1.5615.0914-4.2012-1.4655-4.9876-1.3718,1.9723-3.6632,5.7316-1.5871,7.8963Z" fill="#c89c3e"/><path d="M114.0099,26.4921c1.2139-1.6487,1.088-5.132-.1984-6.7187-.1655-.2042-.5014-.6326-.7768-.5725-.7047.1539-1.968,4.1693-1.9694,4.9939-.0026,1.553,1.6036,4.1186,2.9447,2.2973Z" fill="#c89c3e"/><path d="M106.8522,28.2868c2.1667.0002,3.0501-1.5266,1.3751-3.0512-.2082-.1895-1.67-.9244-1.8315-.9244h-4.6774c-.0353,2.126,3.3131,3.9754,5.1339,3.9756Z" fill="#c89c3e"/><path d="M99.7779,22.2181c1.5337,1.178,4.6915,1.7919,6.0241.0739-.6148-3.6916-4.8776-2.6372-7.5069-2.168-.4238.3045,1.1918,1.8706,1.4828,2.0941Z" fill="#c89c3e"/><path d="M110.667,20.2903c.4879-1.3328.4335-2.5055.0184-3.8444-.2106-.679-1.174-2.8404-1.9971-2.6003-.6793.1982-1.3625,4.3564-1.2492,5.2143.2419,1.8311,2.2989,3.7682,3.2279,1.2304Z" fill="#c89c3e"/><path d="M106.727,14.4515c.1091-1.4071-1.009-4.2689-2.5687-4.532-.3021,1.5986-.8648,3.0914-.3452,4.703.7202,2.2338,2.7051,2.5211,2.9138-.171Z" fill="#c89c3e"/><path d="M95.2118,16.5361c-.2634.9421,2.2663,1.8706,2.9824,1.9727,1.0685.1524,2.4471-.0474,3.0625-1.0512-.2596-1.8191-2.1374-1.9624-3.6312-1.7545-.383.0533-2.3309.5373-2.4137.833Z" fill="#c89c3e"/><path d="M100.7984,11.7123c.1927.0472.6306.1125.7643.0156.0371-.0269.3314-.7547.3508-.8554.2569-1.3288-.3975-3.0558-1.3308-3.9891-.6067-.6067-1.1607-1.1584-1.3827-.0874-.3222,1.5545-.3097,4.4489,1.5983,4.9163Z" fill="#c89c3e"/><path d="M91.9781,13.6576c.8525,1.1529,3.053,1.4005,4.2333.7693,1.7175-.9185-.0318-2.262-1.4181-2.1032-.5524.0633-2.1142.6267-2.5599.959-.1362.1016-.3093.1601-.2553.3749Z" fill="#c89c3e"/><path d="M89.6215,10.9998c-.4983.7561,1.8355.9609,2.262.9169.6895-.0712,2.2076-.8317,1.4301-1.5964-.7238-.7117-1.7867-.3323-2.5662.0409-.1526.0731-1.09.5841-1.1259.6386Z" fill="#c89c3e"/><path d="M97.3638,8.4835c.5203-.8289.3241-2.007-.1377-2.8295-.2263-.4029-1.8456-2.1661-2.2809-1.6871-.0998,1.7567.1129,4.7137,2.4187,4.5166Z" fill="#c89c3e"/><path d="M93.7135,6.5719c.4636-.7386.2888-1.7885-.1227-2.5215-.2017-.359-1.6446-1.9303-2.0326-1.5034-.0889,1.5654.1006,4.2005,2.1553,4.0248Z" fill="#c89c3e"/><path d="M86.9861,2.9022c-.15-.1017-.3229-.1029-.4913-.1115-.0991-.0051-.1967-.0128-.2871-.0453-.9368-.3368-1.3356-1.4513-1.608-2.3675-.025-.0839-.0493-.1667-.0724-.2465,1.3189-.3498,3.2478,1.4167,2.4588,2.7708Z" fill="#c89c3e"/><path d="M83.8842,2.2469c-.1175-.0797-.2531-.0806-.385-.0874-.0777-.004-.1542-.01-.225-.0355-.7342-.264-1.0467-1.1375-1.2603-1.8555-.0196-.0658-.0386-.1307-.0567-.1932,1.0337-.2741,2.5455,1.1104,1.9271,2.1716Z" fill="#c89c3e"/><path d="M82.9284,4.3523c-.1326-.0509-.2107-.1617-.2916-.2662-.0477-.0615-.0963-.1209-.1576-.1644-.636-.4519-1.5315-.2097-2.2429.0251-.0651.0215-.1293.0429-.191.0638.3653,1.0051,2.3652,1.4554,2.8832.3417Z" fill="#c89c3e"/><path d="M89.4724,4.1569c1.1954.6114,1.3094-.4717.9909-1.3996-.2476-.7215-1.4082-1.8915-2.2264-1.8134-.0073,1.0024.2628,2.7155,1.2355,3.2131Z" fill="#c89c3e"/><path d="M88.007,9.8262c.9655.1484,2.5317-.0827,2.6087-1.2904-.6656-.6631-1.4217-.4753-2.1455-.0501-.2107.1238-1.343.8655-1.0775,1.1121.0242.0224.5377.2167.6143.2285Z" fill="#c89c3e"/><path d="M85.603,8.037c.9748.1499,2.556-.0835,2.6337-1.3028-.6719-.6695-1.4354-.4799-2.1661-.0506-.2128.125-1.3559.8738-1.0878,1.1227.0244.0227.5429.2188.6202.2307Z" fill="#c89c3e"/><path d="M83.0416,6.6708c.9748.1499,2.556-.0835,2.6337-1.3028-.6719-.6695-1.4354-.4799-2.1661-.0506-.2128.125-1.3559.8738-1.0878,1.1227.0244.0227.5429.2188.6202.2307Z" fill="#c89c3e"/><path d="M78.8952,1.5143c.5462.6115,1.6841,1.2978,2.3787.5566-.0772-.7848-.6672-1.0669-1.3631-1.1777-.2026-.0323-1.332-.1562-1.2916.1452.0037.0274.2327.4274.276.4759Z" fill="#c89c3e"/><path d="M21.2177,92.1546c.4573.1935.8868.4245,1.2836.6917v-.5582c-.5095-.2365-.9839-.542-1.3824-.9462-.019-.0193-.0359-.0394-.0543-.059-.1639.1013-.3464.1678-.5422.1836.1933.2181.3918.4311.5888.6458.0355.0144.0712.0273.1065.0422Z" fill="#c89c3e"/><path d="M29.1841,91.3798v-1.3763h-.528c-.4345.3588-.8625.6897-1.2833.9935-.4209.3038-.8691.5483-1.3453.7346-.4759.1863-1.014.2798-1.6144.2798-1.8004,0-3.1766-.5501-4.1289-1.651-.9521-1.1003-1.428-2.7299-1.428-4.8893,0-2.042.445-3.5617,1.3349-4.5584.8899-.9967,2.0421-1.4957,3.4566-1.4957.5931,0,1.1416.0607,1.6454.1813.5033.1206.9726.2918,1.4072.5122.1172.0556.2278.1207.3313.1964.1032.0764.1654.1693.1863.2798l.4036,2.121h1.2105v-3.7872c-.4001-.1036-.895-.2141-1.4848-.331-.59-.1175-1.1954-.2192-1.8163-.3057-.621-.0859-1.1865-.1295-1.6971-.1295-1.4142,0-2.6768.3196-3.7875.9576-1.1108.6379-1.9853,1.5405-2.6231,2.7059-.6383,1.1659-.9573,2.5353-.9573,4.1087,0,1.6283.3036,3.0185.9105,4.1706.607,1.1521,1.4609,2.03,2.5613,2.6332,1.1002.6038,2.3852.9057,3.8547.9057.7383,0,1.442-.1194,2.1112-.3569.6692-.2381,1.2831-.5312,1.8422-.8798.5586-.348,1.038-.6885,1.4384-1.0194Z" fill="#fff"/><path d="M36.1844,88.1099h5.452l1.4948,3.8289-1.7385.6v.7763h5.4846v-.7763l-1.097-.4345c-.1103-.041-.2088-.1187-.2947-.2331-.0865-.1137-.1538-.2255-.2019-.336l-5.2259-13.2874h-1.1695l-1.2212,2.4734-4.2116,10.783c-.0967.2621-.2725.4516-.5277.5691l-1.0558.4655v.7763h4.6465v-.7763l-1.759-.6518,1.425-3.7771ZM38.8469,81.0523h.1758l.4036,1.3972,1.6483,4.2217h-4.3475l2.1197-5.6189Z" fill="#fff"/><path d="M54.7388,93.6669c1.3727,0,2.4838-.2141,3.3324-.6417.8486-.4276,1.4694-.9809,1.8626-1.6605s.59-1.3952.59-2.1475c0-.7245-.1365-1.3296-.409-1.8159-.2726-.487-.621-.8849-1.0451-1.1957-.4244-.3101-.8679-.5621-1.3298-.7554-.6278-.2621-1.2073-.4825-1.7385-.6619-.5312-.1794-1.0728-.3695-1.6245-.5697-.8351-.3101-1.3991-.6979-1.6921-1.164-.2935-.4655-.4399-.9677-.4399-1.5058,0-.6.2705-1.1072.8126-1.5209.5412-.4137,1.302-.6209,2.2816-.6209.3244,0,.6278.0309.9108.0929.2828.0625.5398.1434.7709.2432.2308.1004.4258.2091.5847.3259.0827.0556.1758.1295.2794.223.1037.0929.1656.1876.1864.2842l.4137,2.0288h1.2108v-3.798c-.4208-.1035-.8642-.2072-1.3295-.3107-.4659-.1036-.9558-.1895-1.4695-.2584-.5142-.0695-1.0541-.1036-1.6198-.1036-.9383,0-1.7869.1807-2.5457.5432-.759.3619-1.3609.8552-1.8059,1.4799-.445.624-.6672,1.3365-.6672,2.1367,0,.8899.238,1.6492.7139,2.277.4761.6278,1.1313,1.1142,1.9663,1.459.5517.2274,1.1159.4295,1.6918.6051.5761.1762,1.1607.3884,1.7544.6367.6139.2552,1.1034.583,1.4694.9828.3655.4004.5482.9076.5482,1.5215,0,.8142-.307,1.4553-.9209,1.9246-.6142.4693-1.459.7036-2.5353.7036-.3656,0-.7228-.0467-1.0713-.1396-.3483-.0928-.6776-.2154-.9881-.3676-.3105-.1516-.5969-.3101-.859-.4756-.0758-.0556-.1674-.1313-.2742-.228-.1071-.0967-.1708-.1926-.1913-.2893l-.4349-2.1425h-1.2209l.0619,3.9634c.5381.1446,1.0832.2899,1.6353.4345.5517.1453,1.0933.2659,1.6245.3626s1.0348.1446,1.5109.1446Z" fill="#fff"/><path d="M70.9005,92.5389l-1.6662-.5072c-.1104-.0341-.2052-.0909-.2846-.1706-.0792-.0789-.119-.1945-.119-.3467v-11.2592c0-.1377.0398-.2463.119-.3259.0793-.0789.1742-.1358.2846-.1705l1.6662-.5281v-.7554h-6.3127v.7554l1.6766.5281c.1103.0347.2034.0897.2792.1655.0761.0758.114.1863.114.331v11.2592c0,.1522-.0348.2659-.1035.3417-.0689.0758-.1656.1346-.2896.1756l-1.6766.5072v.7763h6.3127v-.7763Z" fill="#fff"/><path d="M76.8166,79.9343c.0758.0764.114.1863.114.3316v11.1866c0,.1446-.0363.2551-.1086.331-.0726.0758-.1674.1345-.2846.1762l-1.5939.5792v.7763h5.3501v-.7763l-1.5625-.5792c-.0967-.0348-.1861-.0897-.2691-.1655-.0827-.0764-.1241-.1901-.1241-.3417v-10.4829h.1654l.7971,1.3554,7.8128,11.0937h1.2317l.3105-2.4008v-10.711c0-.1377.0447-.2432.1345-.3152.0893-.0726.1794-.1263.2691-.1604l1.583-.6007v-.7554h-5.3501v.7554l1.5731.6007c.1103.041.2069.0947.2896.1604.083.0657.1244.1706.1244.3152v9.7383h-.1657l-.7968-1.3353-7.1818-10.2347h-4.2531v.7554l1.6558.5382c.1103.0347.2034.0897.2792.1655Z" fill="#fff"/><path d="M107.0471,91.2402c.5756-.7415,1.002-1.5765,1.2781-2.5044.2757-.9278.4137-1.8816.4137-2.8612,0-1.4698-.2572-2.7873-.7709-3.9533-.5142-1.1659-1.2986-2.0887-2.3544-2.7683-1.0554-.679-2.3973-1.0188-4.0252-1.0188-1.4974,0-2.7824.3328-3.8549.9986-1.0731.6657-1.8958,1.5797-2.4684,2.7418-.5726,1.1628-.8587,2.4962-.8587,4,0,1.5936.2775,2.9718.8328,4.1339.5556,1.1628,1.3661,2.0616,2.4321,2.6957,1.0659.6348,2.3645.9525,3.8961.9525,1.2626,0,2.3475-.2173,3.2547-.6524.9071-.4345,1.6486-1.0226,2.225-1.7642ZM104.2996,91.6489c-.6831.5243-1.5317.7864-2.5457.7864-1.1246,0-2.0543-.2893-2.7889-.8691-.7349-.5792-1.2799-1.3883-1.635-2.4267-.3557-1.0383-.533-2.2504-.533-3.6375,0-1.1173.1568-2.1418.4708-3.0734.3138-.9317.8072-1.6763,1.4799-2.2353.6726-.559,1.547-.8382,2.6234-.8382,1.1243,0,2.054.2792,2.7886.8382.7348.559,1.2834,1.3523,1.6457,2.3799.3619,1.0283.5431,2.246.5431,3.6533,0,1.2209-.1708,2.2991-.5122,3.2339-.3414.9348-.8536,1.6643-1.5368,2.1885Z" fill="#fff"/><path d="M21.8906,98.3939c-.5347-.5722-1.1296-1.0245-1.7849-1.3555-.6557-.331-1.3196-.5653-1.9921-.7036-.6727-.1377-1.3056-.2072-1.899-.2072h-6.7886v.7554l1.5939.5281c.1101.0347.2033.0897.2791.1655s.114.1863.114.331v11.2593c0,.1522-.0381.2678-.114.3467-.0758.0796-.1689.1365-.2791.1706l-1.5939.5072v.7763h6.7472c1.3798,0,2.6355-.2602,3.7669-.7813,1.1312-.5211,2.0332-1.3246,2.7058-2.4109.6727-1.087,1.0091-2.4753,1.0091-4.1655,0-1.1938-.1604-2.2182-.481-3.0735-.3209-.8552-.7489-1.5695-1.2834-2.1424ZM20.0329,108.2042c-.8069,1.0144-2.0764,1.5216-3.808,1.5216h-2.6388v-12.3563h1.997c1.1451,0,2.1423.2659,2.9908.7971.8486.5312,1.5057,1.2847,1.9713,2.2612.4658.9765.6985,2.1405.6985,3.4922,0,1.8424-.4036,3.2705-1.2108,4.2843Z" fill="#fff"/><path d="M27.6367,96.8831l1.6766.5281c.1103.0347.2034.0897.2792.1655.0761.0758.114.1863.114.331v11.2593c0,.1522-.0348.2659-.1035.3417-.0689.0758-.1654.1345-.2896.1756l-1.6766.5072v.7763h6.3127v-.7763l-1.6662-.5072c-.1104-.0341-.2052-.0909-.2844-.1706-.0793-.0789-.119-.1945-.119-.3467v-11.2593c0-.1377.0397-.2463.119-.3259.0792-.0789.174-.1358.2844-.1705l1.6662-.5281v-.7554h-6.3127v.7554Z" fill="#fff"/><path d="M47.3112,103.858c-.4244-.3101-.8679-.5621-1.3298-.7554-.6278-.2621-1.2073-.4825-1.7385-.6619-.5312-.1794-1.0728-.3694-1.6245-.5697-.8349-.3101-1.3991-.6979-1.6921-1.164-.2935-.4655-.4399-.9677-.4399-1.5058,0-.6.2707-1.1072.8126-1.521.5413-.4137,1.3021-.6209,2.2816-.6209.3244,0,.6278.0309.9108.0929.2828.0625.5398.1434.7709.2432.2308.1004.4258.209.5847.3259.0827.0556.1758.1295.2794.223.1037.0929.1656.1876.1864.2842l.4137,2.0288h1.2108v-3.798c-.4208-.1035-.864-.2072-1.3295-.3107-.4659-.1036-.9558-.1895-1.4695-.2584-.5142-.0695-1.0541-.1036-1.6198-.1036-.9383,0-1.7869.1807-2.5457.5432-.759.3619-1.3609.8552-1.8057,1.4799-.4451.624-.6674,1.3365-.6674,2.1367,0,.8899.2382,1.6492.7141,2.277.4759.6278,1.1312,1.1142,1.9661,1.459.5517.2274,1.1159.4295,1.6918.6051.5761.1762,1.1607.3884,1.7544.6367.6139.2552,1.1034.583,1.4694.9828.3655.4004.5484.9076.5484,1.5215,0,.8142-.3071,1.4553-.921,1.9246-.6142.4693-1.459.7036-2.5353.7036-.3656,0-.7228-.0467-1.0711-.1396-.3485-.0928-.6778-.2154-.9883-.3676-.3105-.1516-.5969-.3101-.859-.4756-.0758-.0556-.1674-.1313-.274-.228-.1072-.0967-.1709-.1926-.1915-.2893l-.4349-2.1424h-1.2209l.0619,3.9634c.5382.1446,1.0832.2899,1.6353.4345.5517.1453,1.0933.2659,1.6245.3626s1.0348.1446,1.5109.1446c1.3727,0,2.4838-.2141,3.3324-.6417.8486-.4276,1.4694-.9809,1.8626-1.6605s.59-1.3952.59-2.1475c0-.7245-.1365-1.3296-.409-1.8159-.2726-.487-.621-.8849-1.0451-1.1957Z" fill="#fff"/><path d="M61.5842,96.542c-.8277-.276-1.7524-.4144-2.7733-.4144h-5.9815v.7554l1.5939.5281c.1172.0347.2118.0897.2846.1655.0723.0758.1086.1863.1086.331v11.2593c0,.1522-.0383.2678-.114.3467-.0758.0796-.1691.1365-.2792.1706l-1.5939.5072v.7763h6.2505v-.7763l-1.6867-.5072c-.1106-.0341-.2052-.0909-.2846-.1706-.0795-.0789-.119-.1945-.119-.3467v-4.8637c.2877.1754.6404.3364,1.0659.4815.4759.1617.8899.2432,1.2418.2432.9726,0,1.8351-.1971,2.5871-.5899.7519-.3935,1.3435-.9556,1.7748-1.687.4312-.7315.6468-1.5967.6468-2.5973,0-.9525-.2468-1.723-.74-2.313s-1.154-1.0226-1.9817-1.2986ZM61.8584,101.4522c-.0657.3348-.1984.6727-.3982,1.0144-.2002.3411-.4952.6291-.8849.864-.3898.2343-.9124.3518-1.5677.3518-.3587,0-.7453-.017-1.159-.0518-.357-.0299-.6404-.0734-.859-.1287v-6.1325h1.3762c.9523,0,1.6867.1541,2.2044.4611.5173.307.8777.7086,1.0812,1.2051.2034.4971.3054,1.0352.3054,1.6144,0,.2002-.0328.4674-.0985.8022Z" fill="#fff"/><path d="M77.8591,96.8831l1.5835.6007c.1032.0341.193.0859.2691.1548.0757.0695.1137.1762.1137.3209v7.9685c0,.3588-.0603.7605-.181,1.2058-.1209.4447-.3312.871-.6312,1.2778-.3001.4074-.7106.7434-1.2317,1.0093-.5208.2653-1.1849.3979-1.9918.3979s-1.4609-.1289-1.9612-.3878-.8833-.5912-1.1485-.9986c-.2656-.4067-.4451-.8362-.5382-1.2885-.0931-.4516-.1398-.8672-.1398-1.2468v-7.9893c0-.1377.0378-.2463.114-.3259.0758-.0789.1689-.1358.2795-.1705l1.5832-.5281v-.7554h-6.1469v.7554l1.5731.5281c.1241.041.2238.0985.2999.1705.0758.0726.1138.1813.1138.3259v9.0448c0,.7453.2137,1.4508.6416,2.1165.4277.6658,1.0642,1.2071,1.9094,1.6245.8447.4175,1.8989.6259,3.1612.6259.5591,0,1.1661-.0897,1.8217-.269.6553-.1794,1.2762-.4586,1.8626-.8382.5862-.3796,1.0675-.8761,1.4436-1.49.3757-.614.564-1.3561.564-2.2252v-8.5376c0-.1377.038-.2413.1137-.3101.0758-.0689.1689-.1245.2795-.1655l1.5832-.6007v-.7554h-5.3397v.7554Z" fill="#fff"/><path d="M86.5179,99.9881h1.2108l.414-2.2252c.0205-.1244.0725-.2205.1552-.2899.0827-.0689.1794-.1036.2898-.1036h3.415v11.7974c0,.1522-.0363.2678-.1088.3467-.0723.0796-.1708.1365-.2949.1706l-1.7076.5072v.7763h6.3954v-.7763l-1.7076-.5072c-.1103-.0341-.2052-.0909-.2846-.1706-.0792-.0789-.119-.1945-.119-.3467v-11.7974h3.4255c.1103,0,.2034.0316.2792.0935s.1276.1623.1553.3l.4137,2.2252h1.2108v-3.8605h-13.1424v3.8605Z" fill="#fff"/><path d="M114.3628,107.035l-.414,2.277c-.0208.1238-.0708.2205-.15.2893-.0796.0695-.1709.1035-.2745.1035h-6.095v-5.826h3.1769c.1377,0,.2397.0329.3051.0986.0657.0657.1121.1636.1398.2949l.3724,1.6245h.9936v-5.2879h-.9936l-.3724,1.6346c-.0277.1314-.0741.2262-.1398.2849-.0654.0587-.1674.0878-.3051.0878h-3.1769v-5.226h5.2878c.1175,0,.2138.0328.29.0985.0758.0657.1276.1604.155.2842l.4036,2.0389h1.2212v-3.6842h-11.5179v.7554l1.5939.5281c.1103.0347.2034.0897.2792.1655s.114.1863.114.331v11.2593c0,.1522-.0363.2678-.1086.3467-.0726.0796-.1674.1365-.2846.1706l-1.5939.5072v.7763h12.3043v-3.9325h-1.2105Z" fill="#fff"/></svg>